<?xml version="1.0" encoding="utf-8"?>
<!-- Generator: Adobe Illustrator 25.3.1, SVG Export Plug-In . SVG Version: 6.00 Build 0)  -->
<svg version="1.2" baseProfile="tiny-ps" xmlns="http://www.w3.org/2000/svg" xmlns:xlink="http://www.w3.org/1999/xlink" 
viewBox="0 0 800 400" overflow="visible" xml:space="preserve">
<title>Unilink</title>
<g id="Warstwa_1">
	<rect fill="#FFFFFF" width="800" height="400"/>
	<g>
		<g>
			<path fill="#282454" d="M106.3,131.9v50.2v0.1v0.1v17.9c0,16.1,12.6,32.1,47.8,32.1s48-15.9,48-32.1v-95.1c0-4-1.3-5.6-5.2-5.6
				c0,0-15.2,3.2-20.2,4.2c-3.9,0.7-5.4,1.7-5.4,5.6v85.5c0,8.6-7.9,12.2-17.1,12.2c-9.2,0-16.9-3.6-16.9-12.2v-12.5v-0.2v-16.7v-2
				v-0.2v-44.4c0-3.9-1.3-5.6-5.3-5.6c0,0-4.2,0.9-8.9,1.9l-22,4.4l0,10.2C101.1,129.6,103.7,130.7,106.3,131.9z"/>
			<linearGradient id="SVGID_1_" gradientUnits="userSpaceOnUse" x1="121.7847" y1="131.9279" x2="121.7847" y2="182.4436">
				<stop  offset="0" style="stop-color:#FFFFFF"/>
				<stop  offset="6.090000e-02" style="stop-color:#E4E4EB"/>
				<stop  offset="0.197" style="stop-color:#B1AEC4"/>
				<stop  offset="0.3347" style="stop-color:#8480A4"/>
				<stop  offset="0.4715" style="stop-color:#625C88"/>
				<stop  offset="0.607" style="stop-color:#453F75"/>
				<stop  offset="0.741" style="stop-color:#302B65"/>
				<stop  offset="0.8729" style="stop-color:#2A2559"/>
				<stop  offset="1" style="stop-color:#282454"/>
			</linearGradient>
			<path fill="url(#SVGID_1_)" d="M106.3,182.4h30.9v-16.9v-2.2c0-0.9-0.2-1.9-0.3-2.8c0,0,0,0,0,0c-0.2-0.9-0.4-1.8-0.7-2.6
				c0,0,0-0.1-0.1-0.1c-0.3-0.8-0.6-1.6-1-2.4c-0.1-0.1-0.1-0.2-0.2-0.3c-0.4-0.7-0.8-1.4-1.2-2.1c-0.1-0.2-0.2-0.4-0.4-0.5
				c-0.4-0.6-0.8-1.2-1.3-1.7c-0.2-0.3-0.4-0.6-0.7-0.9c-0.4-0.4-0.7-0.9-1.1-1.3c-0.4-0.4-0.7-0.8-1.1-1.2
				c-0.3-0.3-0.5-0.6-0.8-0.8c-0.6-0.5-1.1-1.1-1.7-1.6c-0.1-0.1-0.2-0.2-0.3-0.3c-6.6-5.8-14.8-10.2-20-12.7L106.3,182.4
				L106.3,182.4z"/>
		</g>
		<path fill="#282454" d="M251.4,137.1c3.9,0,5.1,1.5,5.4,5.4l0.4,3.2c5.2-4.3,14.2-10.1,29.1-10.1c17.1,0,27.6,10.9,27.6,26.1v63.6
			c0,3.9-1.5,5.6-5.4,5.6h-18.9c-4,0-5.6-1.7-5.6-5.6v-55.9c0-5.8-1.1-8.1-7.1-8.1c-7.3,0-15,4.7-18.7,7.5v56.4
			c0,3.9-1.3,5.6-5.3,5.6h-19.3c-3.9,0-5.4-1.7-5.4-5.6v-78.5c0-3.9,1.6-4.7,5.4-5.4C237.9,140.3,251.4,137.1,251.4,137.1"/>
		<path fill="#282454" d="M368,120.9c0,3.9-1.3,5.4-5.2,5.4h-19.3c-3.9,0-5.4-1.5-5.4-5.4v-11.4c0-3.9,1.6-4.8,5.4-5.7
			c4.9-1,19.3-4.2,19.3-4.2c3.9,0,5.2,1.7,5.2,5.6V120.9z M368,225.2c0,3.9-1.3,5.6-5.2,5.6h-19.3c-3.9,0-5.4-1.7-5.4-5.6v-82.5
			c0-3.9,1.5-5.6,5.4-5.6h19.3c3.9,0,5.2,1.7,5.2,5.6V225.2z"/>
		<path fill="#282454" d="M422.5,225.2c0,3.9-1.3,5.6-5.2,5.6H398c-3.9,0-5.4-1.7-5.4-5.6V109.6c0-3.9,1.6-4.9,5.4-5.7
			c5.1-0.9,19.3-4.2,19.3-4.2c3.9,0,5.2,1.7,5.2,5.6V225.2z"/>
		<path fill="#282454" d="M477.1,120.9c0,3.9-1.3,5.4-5.3,5.4h-19.3c-3.9,0-5.4-1.5-5.4-5.4v-11.4c0-3.9,1.6-4.9,5.4-5.7
			c4.9-0.9,19.3-4.2,19.3-4.2c4,0,5.3,1.7,5.3,5.6V120.9z M477.1,225.2c0,3.9-1.3,5.6-5.3,5.6h-19.3c-3.9,0-5.4-1.7-5.4-5.6v-82.5
			c0-3.9,1.5-5.6,5.4-5.6h19.3c4,0,5.3,1.7,5.3,5.6V225.2z"/>
		<path fill="#282454" d="M525,137.1c3.9,0,5.1,1.5,5.4,5.4l0.4,3.2c5.3-4.3,14.3-10.1,29.1-10.1c17.1,0,27.6,10.9,27.6,26.1v63.6
			c0,3.9-1.5,5.6-5.4,5.6h-18.9c-3.9,0-5.6-1.7-5.6-5.6v-55.9c0-5.8-1.1-8.1-7.1-8.1c-7.3,0-15,4.7-18.8,7.5v56.4
			c0,3.9-1.3,5.6-5.2,5.6H507c-3.9,0-5.4-1.7-5.4-5.6v-78.5c0-3.9,1.6-4.5,5.4-5.4C511.4,140.2,525,137.1,525,137.1"/>
		<path fill="#282454" d="M697.9,225.2c1.9,2.8,1.1,5.6-2.8,5.6h-20.8c-3.9,0-6-2.8-7.9-5.6l-21.8-35.4h-3v35.4
			c0,3.9-1.3,5.6-5.2,5.6h-19.3c-3.9,0-5.4-1.7-5.4-5.6V109.6c0-3.9,1.6-4.9,5.4-5.7c4.9-1,19.3-4.2,19.3-4.2c3.9,0,5.2,1.7,5.2,5.6
			v61.9h3l19.3-24.6c2.2-2.8,4.9-5.6,8.8-5.6h20.8c4,0,4.7,3,2.6,5.6l-27.8,34.9L697.9,225.2z"/>
		<path fill="#FFFFFF" d="M137,160.6C137,160.6,137,160.6,137,160.6C137,160.6,137,160.6,137,160.6"/>
		<g>
			<path fill="#EE8004" d="M113.3,295h11.5c0.9,0,1.3,0.3,1.3,1.2v3.2c0,0.9-0.4,1.3-1.3,1.3h-17.3c-0.8,0-1.1-0.5-1.1-1.3v-32.3
				c0-0.9,0.3-1.3,1.2-1.3h4.5c0.9,0,1.2,0.4,1.2,1.3L113.3,295L113.3,295z"/>
			<path fill="#EE8004" d="M148.1,299.4c0,0.9-0.3,1.3-1.2,1.3h-4.5c-0.9,0-1.2-0.4-1.2-1.3v-32.3c0-0.9,0.3-1.3,1.2-1.3h4.5
				c0.9,0,1.2,0.4,1.2,1.3V299.4z"/>
			<path fill="#EE8004" d="M166.6,300.8c-0.8,0-1.1-0.4-1.1-1.3v-32.3c0-0.9,0.3-1.3,1.2-1.3H178c9.3,0,12.6,4,12.6,8.4v18.2
				c0,4.3-3.2,8.4-12.6,8.4H166.6z M172.5,271.5V295h5.5c3.5,0,5.6-1.3,5.6-3.9v-15.7c0-2.6-2.1-3.9-5.6-3.9H172.5z"/>
			<path fill="#EE8004" d="M208.7,300.8c-0.9,0-1.3-0.4-1.3-1.3v-32.3c0-0.9,0.3-1.3,1.3-1.3h17.6c0.9,0,1.3,0.3,1.3,1.2v3.2
				c0,1-0.4,1.3-1.3,1.3h-11.9v8.3h11c0.9,0,1.3,0.3,1.3,1.3v3.1c0,0.9-0.4,1.2-1.3,1.2h-11v9.6h12.4c0.9,0,1.3,0.3,1.3,1.2v3.2
				c0,0.9-0.4,1.3-1.3,1.3L208.7,300.8L208.7,300.8z"/>
			<path fill="#EE8004" d="M251,287.4v12c0,0.9-0.3,1.3-1.2,1.3h-4.5c-0.9,0-1.2-0.4-1.2-1.3v-32.3c0-0.9,0.3-1.3,1.2-1.3h10.8
				c9.3,0,12.4,4,12.4,8.4v4.9c0,3-1.5,5.9-5.7,7.4l5.6,13c0.3,0.8-0.3,1.3-1.2,1.3h-4.5c-0.7,0-0.9-0.5-1.3-1.3l-5-12h-0.3
				L251,287.4L251,287.4z M251,271.5v10.2h5.1c3.4,0,5.6-1.3,5.6-3.9v-2.4c0-2.6-2.1-3.9-5.6-3.9H251z"/>
			<path fill="#EE8004" d="M312.2,291.5c0,2.6,2.1,3.9,5.5,3.9c3.5,0,5.6-1.3,5.6-3.9v-24.4c0-0.9,0.3-1.3,1.2-1.3h4.5
				c0.9,0,1.2,0.4,1.2,1.3v25.7c0,4.3-3.2,8.4-12.5,8.4c-9.3,0-12.5-4-12.5-8.4v-25.7c0-0.9,0.4-1.3,1.3-1.3h4.5
				c0.9,0,1.2,0.4,1.2,1.3L312.2,291.5L312.2,291.5z"/>
			<path fill="#EE8004" d="M348.7,300.8c-0.9,0-1.3-0.4-1.3-1.3v-32.3c0-0.9,0.3-1.3,1.3-1.3h9.4c9.3,0,12.4,3.4,12.4,7.8v3
				c0,2.5-1.2,4.5-3.9,5.7c3.5,1.3,5.5,3.4,5.5,6.2v4.1c0,4.3-3.1,8.1-12.5,8.1L348.7,300.8L348.7,300.8z M354.4,271.3v9h3.9
				c3.3,0,5.4-1.2,5.4-3.9v-1.8c0-2.6-2.1-3.3-5.6-3.3L354.4,271.3L354.4,271.3z M354.4,285.5v9.7h5.3c3.4,0,5.6-1.2,5.6-3.8v-2.3
				c0-2.2-2.2-3.6-5.6-3.6L354.4,285.5L354.4,285.5z"/>
			<path fill="#EE8004" d="M389.5,300.8c-0.9,0-1.3-0.4-1.3-1.3v-32.3c0-0.9,0.3-1.3,1.3-1.3h17.6c0.9,0,1.3,0.3,1.3,1.2v3.2
				c0,1-0.4,1.3-1.3,1.3h-11.9v8.3h11c0.9,0,1.3,0.3,1.3,1.3v3.1c0,0.9-0.4,1.2-1.3,1.2h-11v9.6h12.4c0.9,0,1.3,0.3,1.3,1.2v3.2
				c0,0.9-0.4,1.3-1.3,1.3L389.5,300.8L389.5,300.8z"/>
			<path fill="#EE8004" d="M443.5,265.8c0.9,0,1.3,0.3,1.3,1.3v3.2c0,0.5-0.2,0.8-0.3,1L431.3,295h13.1c0.9,0,1.3,0.3,1.3,1.3v3.2
				c0,0.9-0.4,1.3-1.3,1.3h-20.1c-0.9,0-1.3-0.4-1.3-1.3v-3.2c0-0.4,0.1-0.7,0.2-0.9l13.2-23.8h-11.3c-0.9,0-1.3-0.4-1.3-1.3V267
				c0-0.9,0.4-1.3,1.3-1.3L443.5,265.8L443.5,265.8z"/>
			<path fill="#EE8004" d="M467.7,288.4v11.1c0,0.9-0.3,1.3-1.2,1.3H462c-0.9,0-1.2-0.4-1.2-1.3v-32.3c0-0.9,0.3-1.3,1.2-1.3h10.8
				c9.3,0,12.4,4,12.4,8.4v5.8c0,4.3-3.1,8.4-12.4,8.4H467.7z M467.7,271.5v11.1h5.1c3.4,0,5.6-1.3,5.6-3.8v-3.4
				c0-2.6-2.1-3.9-5.6-3.9H467.7z"/>
			<path fill="#EE8004" d="M507.8,299.4c0,0.9-0.3,1.3-1.2,1.3h-4.5c-0.9,0-1.2-0.4-1.2-1.3v-32.3c0-0.9,0.3-1.3,1.2-1.3h4.5
				c0.9,0,1.2,0.4,1.2,1.3V299.4z"/>
			<path fill="#EE8004" d="M526.5,300.8c-0.9,0-1.3-0.4-1.3-1.3v-32.3c0-0.9,0.3-1.3,1.3-1.3h17.6c0.9,0,1.3,0.3,1.3,1.2v3.2
				c0,1-0.4,1.3-1.3,1.3h-11.9v8.3h11c0.9,0,1.3,0.3,1.3,1.3v3.1c0,0.9-0.4,1.2-1.3,1.2h-11v9.6h12.4c0.9,0,1.3,0.3,1.3,1.2v3.2
				c0,0.9-0.4,1.3-1.3,1.3L526.5,300.8L526.5,300.8z"/>
			<path fill="#EE8004" d="M585.5,292.8c0,4.3-2.8,8.4-12.1,8.4c-9.3,0-12.1-4.1-12.1-8.4v-19c0-4.3,2.8-8.4,12.1-8.4
				c9.3,0,12.1,4.1,12.1,8.4v2.5c0,0.9-0.3,1.3-1.2,1.3H580c-0.9,0-1.3-0.3-1.3-1.3V275c0-2.6-1.8-3.9-5.2-3.9
				c-3.5,0-5.2,1.3-5.2,3.9v16.5c0,2.6,1.7,3.9,5.2,3.9c3.4,0,5.2-1.3,5.2-3.9v-2c0-0.9,0.4-1.3,1.3-1.3h4.3c0.9,0,1.2,0.4,1.2,1.3
				V292.8z"/>
			<path fill="#EE8004" d="M620,265.8c0.9,0,1.3,0.3,1.3,1.3v3.2c0,0.5-0.2,0.8-0.3,1L607.9,295h13.1c0.9,0,1.3,0.3,1.3,1.3v3.2
				c0,0.9-0.4,1.3-1.3,1.3h-20.1c-0.9,0-1.3-0.4-1.3-1.3v-3.2c0-0.4,0.1-0.7,0.2-0.9l13.2-23.8h-11.3c-0.9,0-1.3-0.4-1.3-1.3V267
				c0-0.9,0.4-1.3,1.3-1.3L620,265.8L620,265.8z"/>
			<path fill="#EE8004" d="M638.5,300.8c-0.9,0-1.2-0.4-1.2-1.3v-32.3c0-0.9,0.3-1.3,1.2-1.3h17.6c0.9,0,1.3,0.3,1.3,1.2v3.2
				c0,1-0.4,1.3-1.3,1.3h-11.9v8.3h11c0.9,0,1.3,0.3,1.3,1.3v3.1c0,0.9-0.4,1.2-1.3,1.2h-11v9.6h12.4c0.9,0,1.3,0.3,1.3,1.2v3.2
				c0,0.9-0.4,1.3-1.3,1.3L638.5,300.8L638.5,300.8z"/>
			<path fill="#EE8004" d="M698.9,299.5c0,0.9-0.3,1.3-1.2,1.3h-4.1c-0.7,0-0.9-0.1-1.2-0.6l-9.9-17c-1.4-2.3-2-3.9-2.1-4.1v20.5
				c0,0.9-0.3,1.3-1.2,1.3h-4.1c-0.9,0-1.2-0.4-1.2-1.3v-32.4c0-0.9,0.3-1.3,1.2-1.3h4.1c0.6,0,0.9,0.1,1.1,0.5l10.3,17.7
				c0.8,1.4,1.6,3.4,1.7,3.6v-20.6c0-0.9,0.3-1.3,1.2-1.3h4.1c0.9,0,1.2,0.4,1.2,1.3L698.9,299.5L698.9,299.5z M689.6,262.3
				c-0.3,0.4-0.7,0.9-1.7,0.9h-3.3c-0.8,0-1.1-0.4-0.7-1.3l2.5-5c0.4-0.8,0.8-1.3,1.7-1.3h4.5c0.9,0,1.2,0.6,0.7,1.3L689.6,262.3z"
				/>
		</g>
	</g>
</g>
<g id="Warstwa_2" display="none">
	<rect display="inline" fill="#282454" width="800" height="400"/>
	<g display="inline">
		<g>
			<path fill="#ED8005" d="M113.3,294.5h11.5c0.9,0,1.3,0.3,1.3,1.2v3.2c0,0.9-0.4,1.3-1.3,1.3h-17.3c-0.8,0-1.1-0.5-1.1-1.3v-32.2
				c0-0.9,0.3-1.3,1.2-1.3h4.5c0.9,0,1.2,0.4,1.2,1.3V294.5z"/>
			<path fill="#ED8005" d="M148.1,298.9c0,0.9-0.3,1.3-1.2,1.3h-4.5c-0.9,0-1.2-0.4-1.2-1.3v-32.2c0-0.9,0.3-1.3,1.2-1.3h4.5
				c0.9,0,1.2,0.4,1.2,1.3V298.9z"/>
			<path fill="#ED8005" d="M166.6,300.2c-0.8,0-1.1-0.5-1.1-1.3v-32.2c0-0.9,0.3-1.3,1.2-1.3H178c9.3,0,12.6,4,12.6,8.4v18.2
				c0,4.3-3.2,8.4-12.6,8.4H166.6z M172.5,271.1v23.4h5.5c3.5,0,5.6-1.3,5.6-3.9v-15.7c0-2.6-2.1-3.8-5.6-3.8H172.5z"/>
			<path fill="#ED8005" d="M208.7,300.2c-0.9,0-1.3-0.4-1.3-1.3v-32.2c0-0.9,0.3-1.3,1.3-1.3h17.6c0.9,0,1.3,0.3,1.3,1.2v3.2
				c0,0.9-0.4,1.3-1.3,1.3h-11.9v8.3h11c0.9,0,1.3,0.3,1.3,1.2v3.1c0,0.9-0.4,1.2-1.3,1.2h-11v9.6h12.4c0.9,0,1.3,0.3,1.3,1.2v3.2
				c0,0.9-0.4,1.3-1.3,1.3H208.7z"/>
			<path fill="#ED8005" d="M251.1,286.9v12c0,0.9-0.3,1.3-1.2,1.3h-4.5c-0.9,0-1.2-0.4-1.2-1.3v-32.2c0-0.9,0.3-1.3,1.2-1.3h10.8
				c9.3,0,12.4,4,12.4,8.4v4.9c0,3-1.5,5.9-5.7,7.4l5.6,12.9c0.3,0.8-0.3,1.3-1.2,1.3h-4.5c-0.7,0-0.9-0.5-1.3-1.3l-5-12h-0.3H251.1
				z M251.1,271.1v10.1h5.1c3.4,0,5.5-1.3,5.5-3.9v-2.4c0-2.6-2.1-3.8-5.5-3.8H251.1z"/>
			<path fill="#ED8005" d="M312.2,291c0,2.6,2.1,3.9,5.5,3.9c3.5,0,5.6-1.3,5.6-3.9v-24.4c0-0.9,0.3-1.3,1.2-1.3h4.5
				c0.9,0,1.2,0.4,1.2,1.3v25.6c0,4.3-3.2,8.4-12.5,8.4c-9.3,0-12.5-4-12.5-8.4v-25.6c0-0.9,0.4-1.3,1.3-1.3h4.5
				c0.9,0,1.2,0.4,1.2,1.3V291z"/>
			<path fill="#ED8005" d="M348.7,300.2c-0.9,0-1.2-0.4-1.2-1.3v-32.2c0-0.9,0.3-1.3,1.2-1.3h9.4c9.3,0,12.4,3.4,12.4,7.8v3
				c0,2.5-1.2,4.5-3.9,5.7c3.5,1.2,5.5,3.4,5.5,6.2v4.1c0,4.3-3.1,8.1-12.5,8.1H348.7z M354.4,270.9v8.9h3.9c3.3,0,5.4-1.2,5.4-3.9
				v-1.8c0-2.6-2.1-3.3-5.6-3.3H354.4z M354.4,285v9.7h5.3c3.4,0,5.6-1.2,5.6-3.8v-2.3c0-2.2-2.2-3.5-5.6-3.5H354.4z"/>
			<path fill="#ED8005" d="M389.5,300.2c-0.9,0-1.2-0.4-1.2-1.3v-32.2c0-0.9,0.3-1.3,1.2-1.3h17.6c0.9,0,1.3,0.3,1.3,1.2v3.2
				c0,0.9-0.4,1.3-1.3,1.3h-11.9v8.3h11c0.9,0,1.3,0.3,1.3,1.2v3.1c0,0.9-0.4,1.2-1.3,1.2h-11v9.6h12.4c0.9,0,1.3,0.3,1.3,1.2v3.2
				c0,0.9-0.4,1.3-1.3,1.3H389.5z"/>
			<path fill="#ED8005" d="M443.5,265.3c0.9,0,1.3,0.3,1.3,1.2v3.2c0,0.5-0.2,0.8-0.3,1l-13.2,23.7h13.1c0.9,0,1.3,0.3,1.3,1.2v3.2
				c0,0.9-0.4,1.3-1.3,1.3h-20.1c-0.9,0-1.3-0.3-1.3-1.3v-3.2c0-0.4,0.1-0.7,0.2-0.9l13.2-23.8h-11.3c-0.9,0-1.3-0.3-1.3-1.3v-3.2
				c0-0.9,0.4-1.2,1.3-1.2H443.5z"/>
			<path fill="#ED8005" d="M467.7,287.9v11c0,0.9-0.3,1.3-1.2,1.3H462c-0.9,0-1.2-0.4-1.2-1.3v-32.2c0-0.9,0.3-1.3,1.2-1.3h10.8
				c9.3,0,12.4,4,12.4,8.4v5.8c0,4.3-3.1,8.4-12.4,8.4H467.7z M467.7,271.1v11h5.1c3.4,0,5.5-1.3,5.5-3.8v-3.4
				c0-2.6-2.1-3.8-5.5-3.8H467.7z"/>
			<path fill="#ED8005" d="M507.8,298.9c0,0.9-0.3,1.3-1.2,1.3h-4.5c-0.9,0-1.2-0.4-1.2-1.3v-32.2c0-0.9,0.3-1.3,1.2-1.3h4.5
				c0.9,0,1.2,0.4,1.2,1.3V298.9z"/>
			<path fill="#ED8005" d="M526.5,300.2c-0.9,0-1.2-0.4-1.2-1.3v-32.2c0-0.9,0.3-1.3,1.2-1.3h17.6c0.9,0,1.3,0.3,1.3,1.2v3.2
				c0,0.9-0.4,1.3-1.3,1.3h-11.9v8.3h11c0.9,0,1.3,0.3,1.3,1.2v3.1c0,0.9-0.4,1.2-1.3,1.2h-11v9.6h12.4c0.9,0,1.3,0.3,1.3,1.2v3.2
				c0,0.9-0.4,1.3-1.3,1.3H526.5z"/>
			<path fill="#ED8005" d="M585.5,292.3c0,4.3-2.8,8.4-12.1,8.4c-9.3,0-12.1-4.1-12.1-8.4v-19c0-4.3,2.8-8.4,12.1-8.4
				c9.3,0,12.1,4,12.1,8.4v2.5c0,0.9-0.3,1.3-1.2,1.3H580c-0.9,0-1.3-0.3-1.3-1.3v-1.2c0-2.6-1.8-3.9-5.2-3.9
				c-3.5,0-5.2,1.3-5.2,3.9V291c0,2.6,1.7,3.9,5.2,3.9c3.4,0,5.2-1.3,5.2-3.9v-1.9c0-0.9,0.4-1.3,1.3-1.3h4.3c0.9,0,1.2,0.4,1.2,1.3
				V292.3z"/>
			<path fill="#ED8005" d="M620,265.3c0.9,0,1.3,0.3,1.3,1.2v3.2c0,0.5-0.2,0.8-0.3,1l-13.2,23.7h13.1c0.9,0,1.3,0.3,1.3,1.2v3.2
				c0,0.9-0.4,1.3-1.3,1.3h-20.1c-0.9,0-1.3-0.3-1.3-1.3v-3.2c0-0.4,0.1-0.7,0.2-0.9l13.2-23.8h-11.3c-0.9,0-1.3-0.3-1.3-1.3v-3.2
				c0-0.9,0.4-1.2,1.3-1.2H620z"/>
			<path fill="#ED8005" d="M638.5,300.2c-0.9,0-1.2-0.4-1.2-1.3v-32.2c0-0.9,0.3-1.3,1.2-1.3h17.6c0.9,0,1.3,0.3,1.3,1.2v3.2
				c0,0.9-0.4,1.3-1.3,1.3h-11.9v8.3h11c0.9,0,1.3,0.3,1.3,1.2v3.1c0,0.9-0.4,1.2-1.3,1.2h-11v9.6h12.4c0.9,0,1.3,0.3,1.3,1.2v3.2
				c0,0.9-0.4,1.3-1.3,1.3H638.5z"/>
			<path fill="#ED8005" d="M698.9,298.9c0,0.9-0.3,1.3-1.2,1.3h-4.1c-0.7,0-0.9-0.1-1.2-0.6l-9.9-17c-1.4-2.3-2-3.9-2-4.1v20.4
				c0,0.9-0.3,1.3-1.2,1.3h-4.1c-0.9,0-1.2-0.4-1.2-1.3v-32.3c0-0.9,0.3-1.3,1.2-1.3h4.1c0.6,0,0.9,0.1,1.1,0.5l10.3,17.7
				c0.8,1.4,1.6,3.4,1.7,3.6v-20.5c0-0.9,0.3-1.3,1.2-1.3h4.1c0.9,0,1.2,0.4,1.2,1.3V298.9z M689.6,261.9c-0.3,0.4-0.7,0.9-1.7,0.9
				h-3.3c-0.8,0-1.1-0.4-0.7-1.3l2.5-5c0.4-0.8,0.8-1.3,1.7-1.3h4.5c0.9,0,1.2,0.6,0.7,1.3L689.6,261.9z"/>
		</g>
		<g>
			<path fill="#FFFFFF" d="M137,160.4C137,160.4,137,160.4,137,160.4C137,160.4,137,160.4,137,160.4"/>
			<path fill="#FFFFFF" d="M106.4,131.8v50v0.1v0.1v17.9c0,16.1,12.6,32,47.8,32c35.3,0,48-15.9,48-32V105c0-3.9-1.3-5.6-5.2-5.6
				c0,0-15.2,3.2-20.3,4.2c-3.9,0.7-5.4,1.7-5.4,5.6v85.3c0,8.6-7.9,12.2-17.1,12.2c-9.2,0-16.9-3.6-16.9-12.2V182v-0.2v-16.7v-2
				v-0.2v-44.3c0-3.9-1.3-5.6-5.3-5.6c0,0-4.2,0.9-8.9,1.9l-22,4.4l0,10.2c0,0,1.7,0.7,4.4,1.9"/>
			<image width="32" height="52" xlink:href="37526DB5.png"  transform="matrix(1 0 0 1 106 131)">
			</image>
			<path fill="#FFFFFF" d="M251.4,136.9c3.9,0,5.1,1.5,5.4,5.4l0.4,3.2c5.2-4.3,14.2-10.1,29.1-10.1c17.1,0,27.6,10.9,27.6,26v63.4
				c0,3.9-1.5,5.6-5.4,5.6h-18.9c-3.9,0-5.6-1.7-5.6-5.6v-55.8c0-5.8-1.1-8-7.1-8c-7.3,0-15,4.7-18.7,7.5v56.3
				c0,3.9-1.3,5.6-5.3,5.6h-19.3c-3.9,0-5.4-1.7-5.4-5.6v-78.3c0-3.9,1.6-4.7,5.4-5.4C237.9,140.2,251.4,136.9,251.4,136.9"/>
			<path fill="#FFFFFF" d="M368,120.8c0,3.9-1.3,5.4-5.2,5.4h-19.3c-3.9,0-5.4-1.5-5.4-5.4v-11.4c0-3.9,1.6-4.8,5.4-5.6
				c4.9-1,19.3-4.2,19.3-4.2c3.9,0,5.2,1.7,5.2,5.6V120.8z M368,224.9c0,3.9-1.3,5.6-5.2,5.6h-19.3c-3.9,0-5.4-1.7-5.4-5.6v-82.3
				c0-3.9,1.5-5.6,5.4-5.6h19.3c3.9,0,5.2,1.7,5.2,5.6V224.9z"/>
			<path fill="#FFFFFF" d="M422.6,224.9c0,3.9-1.3,5.6-5.2,5.6H398c-3.9,0-5.4-1.7-5.4-5.6V109.5c0-3.9,1.6-4.9,5.4-5.6
				c5.1-0.9,19.3-4.2,19.3-4.2c3.9,0,5.2,1.7,5.2,5.6V224.9z"/>
			<path fill="#FFFFFF" d="M477.1,120.8c0,3.9-1.3,5.4-5.3,5.4h-19.3c-3.9,0-5.4-1.5-5.4-5.4v-11.4c0-3.9,1.6-4.9,5.4-5.6
				c4.8-0.9,19.3-4.2,19.3-4.2c3.9,0,5.3,1.7,5.3,5.6V120.8z M477.1,224.9c0,3.9-1.3,5.6-5.3,5.6h-19.3c-3.9,0-5.4-1.7-5.4-5.6
				v-82.3c0-3.9,1.5-5.6,5.4-5.6h19.3c3.9,0,5.3,1.7,5.3,5.6V224.9z"/>
			<path fill="#FFFFFF" d="M525,136.9c3.9,0,5.1,1.5,5.4,5.4l0.4,3.2c5.3-4.3,14.3-10.1,29.1-10.1c17.1,0,27.6,10.9,27.6,26v63.4
				c0,3.9-1.5,5.6-5.4,5.6h-18.9c-3.9,0-5.6-1.7-5.6-5.6v-55.8c0-5.8-1.1-8-7.1-8c-7.3,0-15,4.7-18.8,7.5v56.3
				c0,3.9-1.3,5.6-5.3,5.6H507c-3.9,0-5.4-1.7-5.4-5.6v-78.3c0-3.9,1.6-4.5,5.4-5.4C511.4,140.1,525,136.9,525,136.9"/>
			<path fill="#FFFFFF" d="M697.9,224.9c1.9,2.8,1.1,5.6-2.8,5.6h-20.8c-3.9,0-6-2.8-7.9-5.6l-21.8-35.4h-3v35.4
				c0,3.9-1.3,5.6-5.2,5.6h-19.3c-3.9,0-5.4-1.7-5.4-5.6V109.5c0-3.9,1.6-4.8,5.4-5.6c4.9-1,19.3-4.2,19.3-4.2
				c3.9,0,5.2,1.7,5.2,5.6V167h3l19.3-24.5c2.2-2.8,4.9-5.6,8.8-5.6h20.8c4,0,4.7,3,2.6,5.6l-27.8,34.8L697.9,224.9z"/>
		</g>
	</g>
</g>
</svg>
