<?xml version="1.0" encoding="UTF-8" standalone="no"?>
<svg
   xmlns:dc="http://purl.org/dc/elements/1.1/"
   xmlns:cc="http://creativecommons.org/ns#"
   xmlns:rdf="http://www.w3.org/1999/02/22-rdf-syntax-ns#"
   xmlns:svg="http://www.w3.org/2000/svg"
   xmlns="http://www.w3.org/2000/svg"
   viewBox="0 0 706.77197 207.87466"
   height="207.87466"
   width="706.77197"
   xml:space="preserve"
   id="svg2"
   version="1.1"><metadata
     id="metadata8"><rdf:RDF><cc:Work
         rdf:about=""><dc:format>image/svg+xml</dc:format><dc:type
           rdf:resource="http://purl.org/dc/dcmitype/StillImage" /></cc:Work></rdf:RDF></metadata><defs
     id="defs6"><clipPath
       id="clipPath30"
       clipPathUnits="userSpaceOnUse"><path
         id="path28"
         d="M 0,155.906 H 530.079 V 0 H 0 Z" /></clipPath></defs><g
     transform="matrix(1.3333333,0,0,-1.3333333,0,207.87467)"
     id="g10"><g
       transform="translate(179.5608,50.7475)"
       id="g12"><path
         id="path14"
         style="fill:#264b88;fill-opacity:1;fill-rule:nonzero;stroke:none"
         d="M 0,0 -2.232,11.09 H -13.891 L -16.516,0 h -8.548 l 11.366,43.63 H -1.453 L 9.138,0 Z m -7.576,38.901 v 0 h -0.388 l -4.955,-23.388 h 9.711 z" /></g><g
       transform="translate(194.9152,50.7475)"
       id="g16"><path
         id="path18"
         style="fill:#264b88;fill-opacity:1;fill-rule:nonzero;stroke:none"
         d="M 0,0 V 43.63 H 9.035 V 4.604 H 21.863 V 0 Z" /></g><g
       transform="translate(244.6468,50.7475)"
       id="g20"><path
         id="path22"
         style="fill:#264b88;fill-opacity:1;fill-rule:nonzero;stroke:none"
         d="M 0,0 -2.236,11.089 H -13.901 L -16.524,0 h -8.545 l 11.368,43.63 H -1.46 L 9.132,0 Z m -7.58,38.899 v 0 h -0.387 l -4.96,-23.386 h 9.717 z" /></g><g
       id="g24"><g
         clip-path="url(#clipPath30)"
         id="g26"><g
           transform="translate(272.8215,50.7475)"
           id="g32"><path
             id="path34"
             style="fill:#264b88;fill-opacity:1;fill-rule:nonzero;stroke:none"
             d="m 0,0 h -12.827 v 43.63 h 12.141 c 10.306,0 14.679,-1.698 14.679,-7.276 v -7.025 c 0,-3.998 -2.436,-6.003 -8.649,-6.547 6.513,-0.483 9.327,-2.363 9.327,-6.424 V 7.269 C 14.671,1.632 10.294,0 0,0 m 4.763,34.476 v 0 c 0,3.699 -1.262,4.791 -7.097,4.791 H -4.176 V 24.904 h 1.842 c 5.738,0 7.097,1.152 7.097,4.846 z M 5.44,15.57 v 0 c 0,3.997 -1.456,5.03 -7.672,5.03 H -4.176 V 4.302 h 1.944 c 6.216,0 7.672,1.088 7.672,5.085 z" /></g><g
           transform="translate(301.4458,51.4808)"
           id="g36"><path
             id="path38"
             style="fill:#00b0f0;fill-opacity:1;fill-rule:nonzero;stroke:none"
             d="M 0,0 9.094,30.284 12.826,30.277 3.729,-0.007 Z" /></g><g
           transform="translate(319.6615,51.4368)"
           id="g40"><path
             id="path42"
             style="fill:#00b0f0;fill-opacity:1;fill-rule:nonzero;stroke:none"
             d="m 0,0 0.145,1.308 c -1.348,-1.181 -3.096,-1.807 -5.148,-1.8 -3.414,0.004 -3.879,1.566 -2.898,4.849 l 1.261,4.206 c 1.016,3.36 3.791,4.533 10.372,4.685 l 0.895,2.988 c 0.706,2.351 0.541,3.241 -1.451,3.246 -1.805,0.005 -2.665,-0.794 -3.232,-2.688 l -0.35,-1.177 -3.734,0.011 0.175,0.589 c 1.16,3.868 2.814,5.422 7.844,5.405 4.915,-0.011 5.614,-1.611 4.463,-5.435 L 3.482,-0.009 Z m 3.112,11.189 v 0 C -0.707,11.114 -2.136,10.486 -2.796,8.297 L -3.816,4.891 C -4.485,2.662 -4.354,1.653 -2.307,1.647 -0.38,1.645 0.546,2.652 1.216,4.88 Z" /></g><g
           transform="translate(337.0404,50.8872)"
           id="g44"><path
             id="path46"
             style="fill:#00b0f0;fill-opacity:1;fill-rule:nonzero;stroke:none"
             d="M 0,0 C -2.052,0.008 -3.42,0.638 -4.059,1.818 L -4.699,0.519 -8.178,0.523 0.916,30.812 4.645,30.803 1.505,20.327 c 1.349,1.177 3.087,1.804 5.137,1.796 3.421,-0.008 3.887,-1.566 2.903,-4.846 L 5.805,4.826 C 4.823,1.546 3.419,-0.006 0,0 m 5.467,16.739 v 0 C 6.132,18.973 6.001,19.98 3.947,19.986 2.023,19.989 1.095,18.982 0.428,16.753 L -2.985,5.396 C -3.654,3.166 -3.395,2.154 -1.409,2.152 0.644,2.148 1.385,3.156 2.055,5.385 Z" /></g><g
           transform="translate(353.205,50.8509)"
           id="g48"><path
             id="path50"
             style="fill:#00b0f0;fill-opacity:1;fill-rule:nonzero;stroke:none"
             d="m 0,0 c -5.159,0.009 -5.786,1.862 -4.524,6.068 l 3.021,10.051 c 1.274,4.25 2.923,6.014 8.147,6.005 5.097,-0.015 5.799,-1.827 4.533,-6.033 L 8.143,5.996 C 6.873,1.746 5.158,-0.015 0,0 m 7.451,16.732 v 0 c 0.673,2.228 0.536,3.24 -1.455,3.241 -1.927,0.005 -2.785,-1 -3.455,-3.229 L -0.871,5.388 C -1.539,3.158 -1.406,2.144 0.642,2.144 2.566,2.138 3.36,3.106 4.04,5.373 Z" /></g><g
           transform="translate(379.1423,70.3127)"
           id="g52"><path
             id="path54"
             style="fill:#00b0f0;fill-opacity:1;fill-rule:nonzero;stroke:none"
             d="m 0,0 c -3.354,0.01 -4.727,-1.04 -5.498,-3.604 l -4.625,-15.397 -3.729,0.013 6.344,21.111 3.477,-0.007 -0.137,-1.306 c 1.403,1.174 3.149,1.802 4.952,1.798 0.186,0 0.364,-0.042 0.612,-0.042 l -0.772,-2.57 z" /></g><g
           transform="translate(385.4335,51.2736)"
           id="g56"><path
             id="path58"
             style="fill:#00b0f0;fill-opacity:1;fill-rule:nonzero;stroke:none"
             d="m 0,0 0.139,1.303 c -1.342,-1.174 -3.089,-1.8 -5.142,-1.798 -3.419,0.007 -3.884,1.564 -2.899,4.849 l 1.265,4.207 c 1.009,3.363 3.788,4.533 10.369,4.688 l 0.899,2.984 c 0.7,2.357 0.534,3.244 -1.464,3.248 -1.8,0.006 -2.658,-0.793 -3.228,-2.687 l -0.355,-1.18 -3.726,0.011 0.172,0.587 c 1.166,3.872 2.813,5.422 7.852,5.414 4.906,-0.012 5.611,-1.615 4.463,-5.442 L 3.483,-0.009 Z m 3.11,11.189 v 0 C -0.704,11.113 -2.142,10.488 -2.796,8.295 L -3.824,4.889 C -4.492,2.663 -4.358,1.651 -2.307,1.647 -0.38,1.64 0.547,2.646 1.218,4.881 Z" /></g><g
           transform="translate(399.5775,50.7299)"
           id="g60"><path
             id="path62"
             style="fill:#00b0f0;fill-opacity:1;fill-rule:nonzero;stroke:none"
             d="m 0,0 c -4.412,0.018 -4.491,1.399 -3.381,5.105 l 4.321,14.386 -2.053,0.001 0.646,2.147 2.048,-0.006 1.403,4.668 L 7.02,27.304 5.312,21.623 8.171,21.618 7.53,19.471 4.662,19.479 -0.042,3.791 C -0.397,2.616 0.05,2.231 1.788,2.231 H 2.347 L 1.69,0.039 C 1.051,0 0.503,0 0,0" /></g><g
           transform="translate(411.2041,50.7038)"
           id="g64"><path
             id="path66"
             style="fill:#00b0f0;fill-opacity:1;fill-rule:nonzero;stroke:none"
             d="m 0,0 c -5.16,0.01 -5.786,1.864 -4.525,6.072 l 3.024,10.054 c 1.274,4.245 2.921,6.012 8.141,5.998 5.102,-0.015 5.803,-1.826 4.541,-6.032 L 8.152,6 C 6.87,1.751 5.16,-0.014 0,0 m 7.453,16.733 v 0 c 0.667,2.23 0.533,3.241 -1.454,3.244 -1.924,0.005 -2.791,-1.006 -3.46,-3.23 L -0.868,5.387 C -1.536,3.161 -1.41,2.148 0.642,2.144 2.569,2.141 3.36,3.105 4.04,5.379 Z" /></g><g
           transform="translate(437.1448,70.1704)"
           id="g68"><path
             id="path70"
             style="fill:#00b0f0;fill-opacity:1;fill-rule:nonzero;stroke:none"
             d="m 0,0 c -3.36,0.009 -4.729,-1.043 -5.503,-3.608 l -4.618,-15.396 -3.734,0.011 6.341,21.117 3.483,-0.01 -0.145,-1.305 c 1.413,1.177 3.151,1.805 4.957,1.796 0.186,0 0.361,-0.04 0.613,-0.04 L 0.62,-0.005 Z" /></g><g
           transform="translate(434.7263,51.15)"
           id="g72"><path
             id="path74"
             style="fill:#00b0f0;fill-opacity:1;fill-rule:nonzero;stroke:none"
             d="M 0,0 6.344,21.116 10.073,21.105 3.73,-0.013 Z m 7.951,27.089 v 0 l 0.962,3.197 4.155,-0.015 -0.953,-3.198 z" /></g><g
           transform="translate(452.9428,51.1009)"
           id="g76"><path
             id="path78"
             style="fill:#00b0f0;fill-opacity:1;fill-rule:nonzero;stroke:none"
             d="M 0,0 0.142,1.308 C -1.21,0.132 -2.949,-0.495 -5.004,-0.487 -8.419,-0.48 -8.884,1.076 -7.902,4.358 l 1.266,4.208 c 1.006,3.366 3.79,4.536 10.371,4.685 l 0.896,2.988 c 0.705,2.352 0.531,3.242 -1.456,3.244 -1.799,0.004 -2.659,-0.795 -3.23,-2.68 l -0.359,-1.181 -3.726,0.007 0.18,0.59 c 1.161,3.865 2.805,5.421 7.84,5.411 4.917,-0.013 5.615,-1.617 4.466,-5.441 L 3.479,-0.007 Z m 3.112,11.194 v 0 C -0.708,11.116 -2.14,10.488 -2.797,8.299 L -3.823,4.898 c -0.66,-2.23 -0.533,-3.244 1.522,-3.244 1.924,-0.008 2.852,0.999 3.519,3.228 z" /></g><g
           transform="translate(301.4458,51.4808)"
           id="g80"><path
             id="path82"
             style="fill:#00b0f0;fill-opacity:1;fill-rule:nonzero;stroke:none"
             d="M 0,0 9.094,30.284 12.826,30.277 3.729,-0.007 Z" /></g><g
           transform="translate(319.6615,51.4368)"
           id="g84"><path
             id="path86"
             style="fill:#00b0f0;fill-opacity:1;fill-rule:nonzero;stroke:none"
             d="m 0,0 0.145,1.308 c -1.348,-1.181 -3.096,-1.807 -5.148,-1.8 -3.414,0.004 -3.879,1.566 -2.898,4.849 l 1.261,4.206 c 1.016,3.36 3.791,4.533 10.372,4.685 l 0.895,2.988 c 0.706,2.351 0.541,3.241 -1.451,3.246 -1.805,0.005 -2.665,-0.794 -3.232,-2.688 l -0.35,-1.177 -3.734,0.011 0.175,0.589 c 1.16,3.868 2.814,5.422 7.844,5.405 4.915,-0.011 5.614,-1.611 4.463,-5.435 L 3.482,-0.009 Z m 3.112,11.189 v 0 C -0.707,11.114 -2.136,10.486 -2.796,8.297 L -3.816,4.891 C -4.485,2.662 -4.354,1.653 -2.307,1.647 -0.38,1.645 0.546,2.652 1.216,4.88 Z" /></g><g
           transform="translate(337.0404,50.8872)"
           id="g88"><path
             id="path90"
             style="fill:#00b0f0;fill-opacity:1;fill-rule:nonzero;stroke:none"
             d="M 0,0 C -2.052,0.008 -3.42,0.638 -4.059,1.818 L -4.699,0.519 -8.178,0.523 0.916,30.812 4.645,30.803 1.505,20.327 c 1.349,1.177 3.087,1.804 5.137,1.796 3.421,-0.008 3.887,-1.566 2.903,-4.846 L 5.805,4.826 C 4.823,1.546 3.419,-0.006 0,0 m 5.467,16.739 v 0 C 6.132,18.973 6.001,19.98 3.947,19.986 2.023,19.989 1.095,18.982 0.428,16.753 L -2.985,5.396 C -3.654,3.166 -3.395,2.154 -1.409,2.152 0.644,2.148 1.385,3.156 2.055,5.385 Z" /></g><g
           transform="translate(353.205,50.8509)"
           id="g92"><path
             id="path94"
             style="fill:#00b0f0;fill-opacity:1;fill-rule:nonzero;stroke:none"
             d="m 0,0 c -5.159,0.009 -5.786,1.862 -4.524,6.068 l 3.021,10.051 c 1.274,4.25 2.923,6.014 8.147,6.005 5.097,-0.015 5.799,-1.827 4.533,-6.033 L 8.143,5.996 C 6.873,1.746 5.158,-0.015 0,0 m 7.451,16.732 v 0 c 0.673,2.228 0.536,3.24 -1.455,3.241 -1.927,0.005 -2.785,-1 -3.455,-3.229 L -0.871,5.388 C -1.539,3.158 -1.406,2.144 0.642,2.144 2.566,2.138 3.36,3.106 4.04,5.373 Z" /></g><g
           transform="translate(379.1423,70.3127)"
           id="g96"><path
             id="path98"
             style="fill:#00b0f0;fill-opacity:1;fill-rule:nonzero;stroke:none"
             d="m 0,0 c -3.354,0.01 -4.727,-1.04 -5.498,-3.604 l -4.625,-15.397 -3.729,0.013 6.344,21.111 3.477,-0.007 -0.137,-1.306 c 1.403,1.174 3.149,1.802 4.952,1.798 0.186,0 0.364,-0.042 0.612,-0.042 l -0.772,-2.57 z" /></g><g
           transform="translate(385.4335,51.2736)"
           id="g100"><path
             id="path102"
             style="fill:#00b0f0;fill-opacity:1;fill-rule:nonzero;stroke:none"
             d="m 0,0 0.139,1.303 c -1.342,-1.174 -3.089,-1.8 -5.142,-1.798 -3.419,0.007 -3.884,1.564 -2.899,4.849 l 1.265,4.207 c 1.009,3.363 3.788,4.533 10.369,4.688 l 0.899,2.984 c 0.7,2.357 0.534,3.244 -1.464,3.248 -1.8,0.006 -2.658,-0.793 -3.228,-2.687 l -0.355,-1.18 -3.726,0.011 0.172,0.587 c 1.166,3.872 2.813,5.422 7.852,5.414 4.906,-0.012 5.611,-1.615 4.463,-5.442 L 3.483,-0.009 Z m 3.11,11.189 v 0 C -0.704,11.113 -2.142,10.488 -2.796,8.295 L -3.824,4.889 C -4.492,2.663 -4.358,1.651 -2.307,1.647 -0.38,1.64 0.547,2.646 1.218,4.881 Z" /></g><g
           transform="translate(399.5775,50.7299)"
           id="g104"><path
             id="path106"
             style="fill:#00b0f0;fill-opacity:1;fill-rule:nonzero;stroke:none"
             d="m 0,0 c -4.412,0.018 -4.491,1.399 -3.381,5.105 l 4.321,14.386 -2.053,0.001 0.646,2.147 2.048,-0.006 1.403,4.668 L 7.02,27.304 5.312,21.623 8.171,21.618 7.53,19.471 4.662,19.479 -0.042,3.791 C -0.397,2.616 0.05,2.231 1.788,2.231 H 2.347 L 1.69,0.039 C 1.051,0 0.503,0 0,0" /></g><g
           transform="translate(411.2041,50.7038)"
           id="g108"><path
             id="path110"
             style="fill:#00b0f0;fill-opacity:1;fill-rule:nonzero;stroke:none"
             d="m 0,0 c -5.16,0.01 -5.786,1.864 -4.525,6.072 l 3.024,10.054 c 1.274,4.245 2.921,6.012 8.141,5.998 5.102,-0.015 5.803,-1.826 4.541,-6.032 L 8.152,6 C 6.87,1.751 5.16,-0.014 0,0 m 7.453,16.733 v 0 c 0.667,2.23 0.533,3.241 -1.454,3.244 -1.924,0.005 -2.791,-1.006 -3.46,-3.23 L -0.868,5.387 C -1.536,3.161 -1.41,2.148 0.642,2.144 2.569,2.141 3.36,3.105 4.04,5.379 Z" /></g><g
           transform="translate(437.1448,70.1704)"
           id="g112"><path
             id="path114"
             style="fill:#00b0f0;fill-opacity:1;fill-rule:nonzero;stroke:none"
             d="m 0,0 c -3.36,0.009 -4.729,-1.043 -5.503,-3.608 l -4.618,-15.396 -3.734,0.011 6.341,21.117 3.483,-0.01 -0.145,-1.305 c 1.413,1.177 3.151,1.805 4.957,1.796 0.186,0 0.361,-0.04 0.613,-0.04 L 0.62,-0.005 Z" /></g><g
           transform="translate(434.7263,51.15)"
           id="g116"><path
             id="path118"
             style="fill:#00b0f0;fill-opacity:1;fill-rule:nonzero;stroke:none"
             d="M 0,0 6.344,21.116 10.073,21.105 3.73,-0.013 Z m 7.951,27.089 v 0 l 0.962,3.197 4.155,-0.015 -0.953,-3.198 z" /></g><g
           transform="translate(452.9428,51.1009)"
           id="g120"><path
             id="path122"
             style="fill:#00b0f0;fill-opacity:1;fill-rule:nonzero;stroke:none"
             d="M 0,0 0.142,1.308 C -1.21,0.132 -2.949,-0.495 -5.004,-0.487 -8.419,-0.48 -8.884,1.076 -7.902,4.358 l 1.266,4.208 c 1.006,3.366 3.79,4.536 10.371,4.685 l 0.896,2.988 c 0.705,2.352 0.531,3.242 -1.456,3.244 -1.799,0.004 -2.659,-0.795 -3.23,-2.68 l -0.359,-1.181 -3.726,0.007 0.18,0.59 c 1.161,3.865 2.805,5.421 7.84,5.411 4.917,-0.013 5.615,-1.617 4.466,-5.441 L 3.479,-0.007 Z m 3.112,11.194 v 0 C -0.708,11.116 -2.14,10.488 -2.797,8.299 L -3.823,4.898 c -0.66,-2.23 -0.533,-3.244 1.522,-3.244 1.924,-0.008 2.852,0.999 3.519,3.228 z" /></g><g
           transform="translate(128.0355,65.5364)"
           id="g124"><path
             id="path126"
             style="fill:#00b0f0;fill-opacity:1;fill-rule:nonzero;stroke:none"
             d="m 0,0 c -0.524,0 -3.524,-0.253 -4.542,-0.253 -5.495,0 -10.367,2.642 -13.443,6.715 -0.084,0.11 -0.171,0.222 -0.247,0.33 -1.992,2.774 -3.17,6.155 -3.17,9.82 0,3.652 4.046,11.678 4.557,12.564 4.426,7.709 -1.175,14.779 -7.954,14.779 -6.781,0 -12.379,-7.07 -7.951,-14.779 0.418,-0.722 4.645,-8.617 4.645,-12.465 0,-3.159 -0.889,-6.106 -2.401,-8.637 -0.03,-0.049 -0.993,-1.495 -1.21,-1.767 -3.085,-3.93 -7.868,-6.458 -13.251,-6.458 -0.858,0 -3.931,0.151 -4.631,0.151 -8.889,-0.03 -12.218,-8.408 -8.824,-14.285 1.236,-2.14 3.285,-3.764 5.658,-4.459 2.412,-0.708 5.034,-0.396 7.201,0.882 1.068,0.63 2.002,1.469 2.781,2.43 1.156,1.425 1.856,3.131 2.679,4.753 0.679,1.34 1.548,2.582 2.569,3.684 2.061,2.228 4.726,3.867 7.631,4.738 1.631,0.489 3.332,0.736 5.034,0.736 3.186,0 6.34,-0.912 9.027,-2.624 1.306,-0.833 2.496,-1.845 3.528,-3 1.179,-1.319 1.989,-2.827 2.91,-4.325 0.475,-0.774 0.996,-1.522 1.455,-2.304 4.462,-7.696 13.378,-6.383 16.775,-0.511 C 12.219,-8.408 8.892,-0.03 0,0" /></g></g></g></g></svg>