<svg width="3004" height="1000" viewBox="0 0 3004 1000" fill="none" xmlns="http://www.w3.org/2000/svg">
<rect width="3004" height="1000" fill="#F5F5F5"/>
<g clip-path="url(#clip0_0_1)">
<path d="M3004 0H0V1000H3004V0Z" fill="white"/>
<path d="M2605 257H449V669H2605V257Z" fill="white"/>
<mask id="mask0_0_1" style="mask-type:luminance" maskUnits="userSpaceOnUse" x="2343" y="563" width="71" height="71">
<path d="M2343.17 563.417H2413.17V633.417H2343.17V563.417Z" fill="white"/>
</mask>
<g mask="url(#mask0_0_1)">
<mask id="mask1_0_1" style="mask-type:luminance" maskUnits="userSpaceOnUse" x="2343" y="563" width="71" height="71">
<path d="M2378.17 563.417C2358.83 563.417 2343.17 579.083 2343.17 598.417C2343.17 617.745 2358.83 633.417 2378.17 633.417C2397.49 633.417 2413.17 617.745 2413.17 598.417C2413.17 579.083 2397.49 563.417 2378.17 563.417Z" fill="white"/>
</mask>
<g mask="url(#mask1_0_1)">
<mask id="mask2_0_1" style="mask-type:luminance" maskUnits="userSpaceOnUse" x="2342" y="562" width="72" height="73">
<path d="M2413.33 562.667H2342.67V634.667H2413.33V562.667Z" fill="white"/>
</mask>
<g mask="url(#mask2_0_1)">
<mask id="mask3_0_1" style="mask-type:luminance" maskUnits="userSpaceOnUse" x="2343" y="563" width="71" height="71">
<path d="M2343.17 563.417H2413.17V633.417H2343.17V563.417Z" fill="white"/>
</mask>
<g mask="url(#mask3_0_1)">
<mask id="mask4_0_1" style="mask-type:luminance" maskUnits="userSpaceOnUse" x="2343" y="563" width="71" height="71">
<path d="M2378.17 563.417C2358.83 563.417 2343.17 579.083 2343.17 598.417C2343.17 617.745 2358.83 633.417 2378.17 633.417C2397.49 633.417 2413.17 617.745 2413.17 598.417C2413.17 579.083 2397.49 563.417 2378.17 563.417Z" fill="white"/>
</mask>
<g mask="url(#mask4_0_1)">
<path d="M2343.17 563.417H2413.17V633.417H2343.17V563.417Z" fill="#E91E63"/>
</g>
</g>
</g>
</g>
</g>
<path d="M478.575 297.225H542.159C557.351 297.225 570.784 300.132 582.45 305.934C594.117 311.725 603.18 319.887 609.638 330.413C616.107 340.944 619.346 353.204 619.346 367.204C619.346 381.204 616.107 393.475 609.638 404.017C603.18 414.548 594.117 422.715 582.45 428.517C570.784 434.309 557.351 437.204 542.159 437.204H478.575V297.225ZM540.555 410.6C554.555 410.6 565.721 406.704 574.055 398.913C582.388 391.111 586.555 380.538 586.555 367.204C586.555 353.871 582.388 343.309 574.055 335.517C565.721 327.715 554.555 323.809 540.555 323.809H510.971V410.6H540.555Z" fill="#123D7A"/>
<path d="M646.954 297.225H679.35V410.809H749.537V437.204H646.954V297.225ZM624.954 376.413L700.141 320.017L711.746 335.621L636.558 392.017L624.954 376.413Z" fill="#123D7A"/>
<path d="M828.718 439.6C808.718 439.6 793.145 434.074 782.01 423.017C770.885 411.949 765.322 396.152 765.322 375.621V297.225H797.718V374.413C797.718 399.486 808.119 412.017 828.926 412.017C839.051 412.017 846.781 408.986 852.114 402.913C857.447 396.845 860.114 387.345 860.114 374.413V297.225H892.114V375.621C892.114 396.152 886.541 411.949 875.406 423.017C864.281 434.074 848.718 439.6 828.718 439.6Z" fill="#123D7A"/>
<path d="M1019.29 365.017H1048.89V421.809C1041.29 427.548 1032.5 431.949 1022.5 435.017C1012.5 438.069 1002.42 439.6 992.289 439.6C977.758 439.6 964.696 436.507 953.102 430.309C941.503 424.1 932.399 415.507 925.789 404.517C919.19 393.517 915.893 381.079 915.893 367.204C915.893 353.345 919.19 340.913 925.789 329.913C932.399 318.913 941.565 310.319 953.289 304.121C965.024 297.928 978.227 294.829 992.893 294.829C1005.15 294.829 1016.29 296.902 1026.29 301.038C1036.29 305.163 1044.69 311.158 1051.48 319.017L1030.69 338.204C1020.69 327.678 1008.62 322.413 994.498 322.413C985.565 322.413 977.628 324.283 970.685 328.017C963.753 331.757 958.357 337.027 954.498 343.829C950.633 350.621 948.706 358.413 948.706 367.204C948.706 375.871 950.633 383.611 954.498 390.413C958.357 397.204 963.716 402.507 970.581 406.309C977.456 410.116 985.294 412.017 994.102 412.017C1003.42 412.017 1011.82 410.017 1019.29 406.017V365.017Z" fill="#123D7A"/>
<path d="M1147.27 439.6C1132.73 439.6 1119.63 436.47 1107.96 430.204C1096.3 423.944 1087.17 415.309 1080.57 404.309C1073.97 393.309 1070.67 380.944 1070.67 367.204C1070.67 353.486 1073.97 341.121 1080.57 330.121C1087.17 319.121 1096.3 310.491 1107.96 304.225C1119.63 297.965 1132.73 294.829 1147.27 294.829C1161.8 294.829 1174.86 297.965 1186.46 304.225C1198.05 310.491 1207.19 319.121 1213.86 330.121C1220.52 341.121 1223.86 353.486 1223.86 367.204C1223.86 380.944 1220.52 393.309 1213.86 404.309C1207.19 415.309 1198.05 423.944 1186.46 430.204C1174.86 436.47 1161.8 439.6 1147.27 439.6ZM1147.27 412.017C1155.53 412.017 1163 410.116 1169.67 406.309C1176.34 402.507 1181.57 397.204 1185.36 390.413C1189.16 383.611 1191.07 375.871 1191.07 367.204C1191.07 358.538 1189.16 350.809 1185.36 344.017C1181.57 337.215 1176.34 331.913 1169.67 328.121C1163 324.319 1155.53 322.413 1147.27 322.413C1139.01 322.413 1131.54 324.319 1124.88 328.121C1118.21 331.913 1112.97 337.215 1109.17 344.017C1105.38 350.809 1103.48 358.538 1103.48 367.204C1103.48 375.871 1105.38 383.611 1109.17 390.413C1112.97 397.204 1118.21 402.507 1124.88 406.309C1131.54 410.116 1139.01 412.017 1147.27 412.017Z" fill="#123D7A"/>
<path d="M1455.82 297.225L1410.03 437.204H1375.24L1344.44 342.413L1312.65 437.204H1278.05L1232.05 297.225H1265.65L1297.24 395.6L1330.24 297.225H1360.24L1392.24 396.413L1424.84 297.225H1455.82Z" fill="#123D7A"/>
<path d="M1474.42 297.225H1506.82V437.204H1474.42V297.225Z" fill="#123D7A"/>
<path d="M1648.98 411.204V437.204H1540.61V297.225H1646.4V323.225H1572.8V353.621H1637.8V378.809H1572.8V411.204H1648.98Z" fill="#123D7A"/>
<path d="M1741.97 439.6C1727.7 439.6 1714.81 436.507 1703.28 430.309C1691.75 424.1 1682.68 415.507 1676.07 404.517C1669.47 393.517 1666.18 381.079 1666.18 367.204C1666.18 353.345 1669.47 340.913 1676.07 329.913C1682.68 318.913 1691.75 310.319 1703.28 304.121C1714.81 297.928 1727.77 294.829 1742.18 294.829C1754.3 294.829 1765.26 296.965 1775.07 301.225C1784.87 305.491 1793.1 311.621 1799.76 319.621L1778.97 338.809C1769.51 327.882 1757.78 322.413 1743.78 322.413C1735.11 322.413 1727.37 324.319 1720.57 328.121C1713.78 331.913 1708.48 337.215 1704.68 344.017C1700.88 350.809 1698.99 358.538 1698.99 367.204C1698.99 375.871 1700.88 383.611 1704.68 390.413C1708.48 397.204 1713.78 402.507 1720.57 406.309C1727.37 410.116 1735.11 412.017 1743.78 412.017C1757.78 412.017 1769.51 406.486 1778.97 395.413L1799.76 414.6C1793.1 422.741 1784.84 428.944 1774.97 433.204C1765.1 437.465 1754.1 439.6 1741.97 439.6Z" fill="#123D7A"/>
<path d="M1935.54 410.809V437.204H1813.17V416.204L1889.96 323.621H1814.77V297.225H1932.54V318.225L1855.96 410.809H1935.54Z" fill="#123D7A"/>
<path d="M2085.32 297.225V437.204H2058.74L1988.95 352.204V437.204H1956.94V297.225H1983.74L2053.32 382.204V297.225H2085.32Z" fill="#123D7A"/>
<path d="M2186.91 439.6C2172.37 439.6 2159.27 436.47 2147.6 430.204C2135.94 423.944 2126.81 415.309 2120.2 404.309C2113.6 393.309 2110.31 380.944 2110.31 367.204C2110.31 353.486 2113.6 341.121 2120.2 330.121C2126.81 319.121 2135.94 310.491 2147.6 304.225C2159.27 297.965 2172.37 294.829 2186.91 294.829C2201.44 294.829 2214.5 297.965 2226.1 304.225C2237.69 310.491 2246.83 319.121 2253.49 330.121C2260.16 341.121 2263.49 353.486 2263.49 367.204C2263.49 380.944 2260.16 393.309 2253.49 404.309C2246.83 415.309 2237.69 423.944 2226.1 430.204C2214.5 436.47 2201.44 439.6 2186.91 439.6ZM2186.91 412.017C2195.17 412.017 2202.64 410.116 2209.31 406.309C2215.97 402.507 2221.2 397.204 2224.99 390.413C2228.8 383.611 2230.7 375.871 2230.7 367.204C2230.7 358.538 2228.8 350.809 2224.99 344.017C2221.2 337.215 2215.97 331.913 2209.31 328.121C2202.64 324.319 2195.17 322.413 2186.91 322.413C2178.65 322.413 2171.18 324.319 2164.52 328.121C2157.85 331.913 2152.61 337.215 2148.81 344.017C2145.02 350.809 2143.12 358.538 2143.12 367.204C2143.12 375.871 2145.02 383.611 2148.81 390.413C2152.61 397.204 2157.85 402.507 2164.52 406.309C2171.18 410.116 2178.65 412.017 2186.91 412.017Z" fill="#123D7A"/>
<path d="M2334.47 439.6C2323.42 439.6 2312.72 438.1 2302.39 435.1C2292.06 432.1 2283.75 428.204 2277.49 423.413L2288.49 399.017C2294.49 403.408 2301.62 406.934 2309.89 409.6C2318.15 412.267 2326.42 413.6 2334.68 413.6C2343.87 413.6 2350.67 412.241 2355.08 409.517C2359.48 406.783 2361.68 403.142 2361.68 398.6C2361.68 395.267 2360.38 392.507 2357.78 390.309C2355.19 388.116 2351.85 386.35 2347.78 385.017C2343.71 383.684 2338.21 382.215 2331.28 380.6C2320.62 378.074 2311.88 375.548 2305.08 373.017C2298.28 370.475 2292.45 366.408 2287.58 360.809C2282.71 355.215 2280.28 347.746 2280.28 338.413C2280.28 330.288 2282.48 322.928 2286.89 316.329C2291.29 309.72 2297.92 304.486 2306.78 300.621C2315.64 296.762 2326.48 294.829 2339.28 294.829C2348.21 294.829 2356.94 295.902 2365.47 298.038C2374.01 300.163 2381.48 303.225 2387.87 307.225L2377.87 331.809C2364.94 324.475 2352 320.809 2339.08 320.809C2330.02 320.809 2323.33 322.283 2318.99 325.225C2314.66 328.158 2312.49 332.017 2312.49 336.809C2312.49 341.616 2314.99 345.184 2319.99 347.517C2324.99 349.85 2332.62 352.152 2342.89 354.413C2353.56 356.944 2362.28 359.475 2369.08 362.017C2375.88 364.548 2381.71 368.548 2386.58 374.017C2391.44 379.475 2393.87 386.871 2393.87 396.204C2393.87 404.204 2391.63 411.507 2387.16 418.1C2382.7 424.699 2376 429.934 2367.08 433.809C2358.14 437.668 2347.27 439.6 2334.47 439.6ZM2345.68 257.017H2379.26L2343.08 285.829H2318.68L2345.68 257.017Z" fill="#123D7A"/>
<path d="M2483.65 439.6C2469.39 439.6 2456.49 436.507 2444.96 430.309C2433.43 424.1 2424.37 415.507 2417.76 404.517C2411.16 393.517 2407.86 381.079 2407.86 367.204C2407.86 353.345 2411.16 340.913 2417.76 329.913C2424.37 318.913 2433.43 310.319 2444.96 304.121C2456.49 297.928 2469.45 294.829 2483.86 294.829C2495.99 294.829 2506.95 296.965 2516.76 301.225C2526.56 305.491 2534.79 311.621 2541.44 319.621L2520.65 338.809C2511.19 327.882 2499.46 322.413 2485.46 322.413C2476.8 322.413 2469.06 324.319 2462.26 328.121C2455.46 331.913 2450.16 337.215 2446.36 344.017C2442.57 350.809 2440.67 358.538 2440.67 367.204C2440.67 375.871 2442.57 383.611 2446.36 390.413C2450.16 397.204 2455.46 402.507 2462.26 406.309C2469.06 410.116 2476.8 412.017 2485.46 412.017C2499.46 412.017 2511.19 406.486 2520.65 395.413L2541.44 414.6C2534.79 422.741 2526.53 428.944 2516.65 433.204C2506.79 437.465 2495.79 439.6 2483.65 439.6ZM2491.67 257.017H2525.26L2489.07 285.829H2464.67L2491.67 257.017Z" fill="#123D7A"/>
<path d="M474.129 559.145H510.587C519.306 559.145 527.009 560.812 533.691 564.145C540.384 567.468 545.587 572.145 549.296 578.187C553.004 584.228 554.858 591.265 554.858 599.291C554.858 607.322 553.004 614.353 549.296 620.395C545.587 626.426 540.384 631.103 533.691 634.437C527.009 637.759 519.306 639.416 510.587 639.416H474.129V559.145ZM509.671 624.166C517.697 624.166 524.098 621.931 528.879 617.457C533.655 612.989 536.046 606.931 536.046 599.291C536.046 591.64 533.655 585.577 528.879 581.103C524.098 576.634 517.697 574.395 509.671 574.395H492.691V624.166H509.671Z" fill="#E53935"/>
<path d="M575.371 559.145H593.933V624.27H634.183V639.416H575.371V559.145Z" fill="#E53935"/>
<path d="M704.701 622.207H667.43L660.326 639.416H641.284L677.076 559.145H695.409L731.305 639.416H711.805L704.701 622.207ZM698.847 608.103L686.138 577.374L673.409 608.103H698.847Z" fill="#E53935"/>
<path d="M814.421 607.874L803.651 619.124V639.416H785.192V559.145H803.651V596.645L839.192 559.145H859.838L826.588 594.916L861.796 639.416H840.109L814.421 607.874Z" fill="#E53935"/>
<path d="M925.873 622.207H888.602L881.498 639.416H862.457L898.248 559.145H916.582L952.477 639.416H932.977L925.873 622.207ZM920.019 608.103L907.311 577.374L894.582 608.103H920.019Z" fill="#E53935"/>
<path d="M1032.4 624.27V639.416H962.215V627.374L1006.26 574.291H963.131V559.145H1030.67V571.187L986.756 624.27H1032.4ZM997.319 552.041C994.486 552.041 992.163 551.124 990.361 549.291C988.569 547.457 987.673 545.124 987.673 542.291C987.673 539.541 988.569 537.249 990.361 535.416C992.163 533.582 994.486 532.666 997.319 532.666C1000.14 532.666 1002.44 533.582 1004.24 535.416C1006.04 537.249 1006.94 539.541 1006.94 542.291C1006.94 545.124 1006.04 547.457 1004.24 549.291C1002.44 551.124 1000.14 552.041 997.319 552.041Z" fill="#E53935"/>
<path d="M1050.85 559.145H1087.31C1096.03 559.145 1103.73 560.812 1110.41 564.145C1117.11 567.468 1122.31 572.145 1126.02 578.187C1129.73 584.228 1131.58 591.265 1131.58 599.291C1131.58 607.322 1129.73 614.353 1126.02 620.395C1122.31 626.426 1117.11 631.103 1110.41 634.437C1103.73 637.759 1096.03 639.416 1087.31 639.416H1050.85V559.145ZM1086.39 624.166C1094.42 624.166 1100.82 621.931 1105.6 617.457C1110.38 612.989 1112.77 606.931 1112.77 599.291C1112.77 591.64 1110.38 585.577 1105.6 581.103C1100.82 576.634 1094.42 574.395 1086.39 574.395H1069.41V624.166H1086.39Z" fill="#E53935"/>
<path d="M1214.24 624.499V639.416H1152.09V559.145H1212.74V574.062H1170.55V591.478H1207.82V605.937H1170.55V624.499H1214.24Z" fill="#E53935"/>
<path d="M1289.56 598.02H1306.54V630.582C1302.18 633.874 1297.13 636.405 1291.4 638.166C1285.66 639.916 1279.89 640.791 1274.08 640.791C1265.75 640.791 1258.26 639.015 1251.6 635.457C1244.96 631.905 1239.75 626.973 1235.96 620.666C1232.18 614.364 1230.29 607.239 1230.29 599.291C1230.29 591.332 1232.18 584.202 1235.96 577.895C1239.75 571.593 1245.01 566.66 1251.73 563.103C1258.45 559.551 1266.02 557.77 1274.44 557.77C1281.46 557.77 1287.84 558.957 1293.58 561.332C1299.32 563.697 1304.13 567.134 1308.02 571.645L1296.1 582.666C1290.36 576.624 1283.45 573.603 1275.35 573.603C1270.23 573.603 1265.68 574.676 1261.71 576.812C1257.73 578.952 1254.64 581.973 1252.42 585.874C1250.19 589.765 1249.08 594.239 1249.08 599.291C1249.08 604.249 1250.19 608.681 1252.42 612.582C1254.64 616.489 1257.71 619.53 1261.65 621.707C1265.57 623.874 1270.07 624.957 1275.13 624.957C1280.47 624.957 1285.28 623.812 1289.56 621.52V598.02Z" fill="#E53935"/>
<path d="M1369.14 640.791C1360.81 640.791 1353.3 638.999 1346.6 635.416C1339.92 631.822 1334.69 626.869 1330.89 620.562C1327.11 614.259 1325.23 607.166 1325.23 599.291C1325.23 591.416 1327.11 584.327 1330.89 578.02C1334.69 571.718 1339.92 566.765 1346.6 563.166C1353.3 559.572 1360.81 557.77 1369.14 557.77C1377.48 557.77 1384.96 559.572 1391.6 563.166C1398.25 566.765 1403.49 571.718 1407.31 578.02C1411.14 584.327 1413.06 591.416 1413.06 599.291C1413.06 607.166 1411.14 614.259 1407.31 620.562C1403.49 626.869 1398.25 631.822 1391.6 635.416C1384.96 638.999 1377.48 640.791 1369.14 640.791ZM1369.14 624.957C1373.88 624.957 1378.15 623.874 1381.98 621.707C1385.8 619.53 1388.8 616.489 1390.98 612.582C1393.15 608.681 1394.25 604.249 1394.25 599.291C1394.25 594.322 1393.15 589.884 1390.98 585.978C1388.8 582.077 1385.8 579.041 1381.98 576.874C1378.15 574.697 1373.88 573.603 1369.14 573.603C1364.39 573.603 1360.11 574.697 1356.29 576.874C1352.47 579.041 1349.47 582.077 1347.29 585.978C1345.11 589.884 1344.02 594.322 1344.02 599.291C1344.02 604.249 1345.11 608.681 1347.29 612.582C1349.47 616.489 1352.47 619.53 1356.29 621.707C1360.11 623.874 1364.39 624.957 1369.14 624.957Z" fill="#E53935"/>
<mask id="mask5_0_1" style="mask-type:luminance" maskUnits="userSpaceOnUse" x="2223" y="568" width="61" height="61">
<path d="M2223.67 568.417H2283.67V628.417H2223.67V568.417Z" fill="white"/>
</mask>
<g mask="url(#mask5_0_1)">
<mask id="mask6_0_1" style="mask-type:luminance" maskUnits="userSpaceOnUse" x="2223" y="568" width="61" height="61">
<path d="M2253.67 568.417C2237.1 568.417 2223.67 581.849 2223.67 598.417C2223.67 614.984 2237.1 628.417 2253.67 628.417C2270.24 628.417 2283.67 614.984 2283.67 598.417C2283.67 581.849 2270.24 568.417 2253.67 568.417Z" fill="white"/>
</mask>
<g mask="url(#mask6_0_1)">
<mask id="mask7_0_1" style="mask-type:luminance" maskUnits="userSpaceOnUse" x="2222" y="568" width="62" height="62">
<path d="M2284 568H2222.67V629.333H2284V568Z" fill="white"/>
</mask>
<g mask="url(#mask7_0_1)">
<mask id="mask8_0_1" style="mask-type:luminance" maskUnits="userSpaceOnUse" x="2223" y="568" width="61" height="61">
<path d="M2223.67 568.417H2283.67V628.417H2223.67V568.417Z" fill="white"/>
</mask>
<g mask="url(#mask8_0_1)">
<mask id="mask9_0_1" style="mask-type:luminance" maskUnits="userSpaceOnUse" x="2223" y="568" width="61" height="61">
<path d="M2253.67 568.417C2237.1 568.417 2223.67 581.849 2223.67 598.417C2223.67 614.984 2237.1 628.417 2253.67 628.417C2270.24 628.417 2283.67 614.984 2283.67 598.417C2283.67 581.849 2270.24 568.417 2253.67 568.417Z" fill="white"/>
</mask>
<g mask="url(#mask9_0_1)">
<path d="M2223.67 568.417H2283.67V628.417H2223.67V568.417Z" fill="#C2185B"/>
</g>
</g>
</g>
</g>
</g>
<mask id="mask10_0_1" style="mask-type:luminance" maskUnits="userSpaceOnUse" x="2108" y="570" width="57" height="57">
<path d="M2108.18 570.417H2164.18V626.417H2108.18V570.417Z" fill="white"/>
</mask>
<g mask="url(#mask10_0_1)">
<mask id="mask11_0_1" style="mask-type:luminance" maskUnits="userSpaceOnUse" x="2108" y="570" width="57" height="57">
<path d="M2136.18 570.417C2120.71 570.417 2108.18 582.953 2108.18 598.417C2108.18 613.88 2120.71 626.417 2136.18 626.417C2151.64 626.417 2164.18 613.88 2164.18 598.417C2164.18 582.953 2151.64 570.417 2136.18 570.417Z" fill="white"/>
</mask>
<g mask="url(#mask11_0_1)">
<mask id="mask12_0_1" style="mask-type:luminance" maskUnits="userSpaceOnUse" x="2108" y="569" width="58" height="58">
<path d="M2165.33 569.333H2108V626.667H2165.33V569.333Z" fill="white"/>
</mask>
<g mask="url(#mask12_0_1)">
<mask id="mask13_0_1" style="mask-type:luminance" maskUnits="userSpaceOnUse" x="2108" y="570" width="57" height="57">
<path d="M2108.18 570.417H2164.18V626.417H2108.18V570.417Z" fill="white"/>
</mask>
<g mask="url(#mask13_0_1)">
<mask id="mask14_0_1" style="mask-type:luminance" maskUnits="userSpaceOnUse" x="2108" y="570" width="57" height="57">
<path d="M2136.18 570.417C2120.71 570.417 2108.18 582.953 2108.18 598.417C2108.18 613.88 2120.71 626.417 2136.18 626.417C2151.64 626.417 2164.18 613.88 2164.18 598.417C2164.18 582.953 2151.64 570.417 2136.18 570.417Z" fill="white"/>
</mask>
<g mask="url(#mask14_0_1)">
<path d="M2108.18 570.417H2164.18V626.417H2108.18V570.417Z" fill="#D32F2F"/>
</g>
</g>
</g>
</g>
</g>
<mask id="mask15_0_1" style="mask-type:luminance" maskUnits="userSpaceOnUse" x="1996" y="572" width="53" height="53">
<path d="M1996.68 572.417H2048.68V624.417H1996.68V572.417Z" fill="white"/>
</mask>
<g mask="url(#mask15_0_1)">
<mask id="mask16_0_1" style="mask-type:luminance" maskUnits="userSpaceOnUse" x="1996" y="572" width="53" height="53">
<path d="M2022.68 572.417C2008.32 572.417 1996.68 584.057 1996.68 598.417C1996.68 612.776 2008.32 624.417 2022.68 624.417C2037.04 624.417 2048.68 612.776 2048.68 598.417C2048.68 584.057 2037.04 572.417 2022.68 572.417Z" fill="white"/>
</mask>
<g mask="url(#mask16_0_1)">
<mask id="mask17_0_1" style="mask-type:luminance" maskUnits="userSpaceOnUse" x="1996" y="572" width="54" height="54">
<path d="M2049.33 572H1996V625.333H2049.33V572Z" fill="white"/>
</mask>
<g mask="url(#mask17_0_1)">
<mask id="mask18_0_1" style="mask-type:luminance" maskUnits="userSpaceOnUse" x="1996" y="572" width="53" height="53">
<path d="M1996.68 572.417H2048.68V624.417H1996.68V572.417Z" fill="white"/>
</mask>
<g mask="url(#mask18_0_1)">
<mask id="mask19_0_1" style="mask-type:luminance" maskUnits="userSpaceOnUse" x="1996" y="572" width="53" height="53">
<path d="M2022.68 572.417C2008.32 572.417 1996.68 584.057 1996.68 598.417C1996.68 612.776 2008.32 624.417 2022.68 624.417C2037.04 624.417 2048.68 612.776 2048.68 598.417C2048.68 584.057 2037.04 572.417 2022.68 572.417Z" fill="white"/>
</mask>
<g mask="url(#mask19_0_1)">
<path d="M1996.68 572.417H2048.68V624.417H1996.68V572.417Z" fill="#E53935"/>
</g>
</g>
</g>
</g>
</g>
<mask id="mask20_0_1" style="mask-type:luminance" maskUnits="userSpaceOnUse" x="1889" y="574" width="49" height="49">
<path d="M1889.19 574.417H1937.19V622.417H1889.19V574.417Z" fill="white"/>
</mask>
<g mask="url(#mask20_0_1)">
<mask id="mask21_0_1" style="mask-type:luminance" maskUnits="userSpaceOnUse" x="1889" y="574" width="49" height="49">
<path d="M1913.19 574.417C1899.93 574.417 1889.19 585.161 1889.19 598.417C1889.19 611.672 1899.93 622.417 1913.19 622.417C1926.44 622.417 1937.19 611.672 1937.19 598.417C1937.19 585.161 1926.44 574.417 1913.19 574.417Z" fill="white"/>
</mask>
<g mask="url(#mask21_0_1)">
<mask id="mask22_0_1" style="mask-type:luminance" maskUnits="userSpaceOnUse" x="1888" y="573" width="50" height="50">
<path d="M1937.33 573.333H1888V622.667H1937.33V573.333Z" fill="white"/>
</mask>
<g mask="url(#mask22_0_1)">
<mask id="mask23_0_1" style="mask-type:luminance" maskUnits="userSpaceOnUse" x="1889" y="574" width="49" height="49">
<path d="M1889.19 574.417H1937.19V622.417H1889.19V574.417Z" fill="white"/>
</mask>
<g mask="url(#mask23_0_1)">
<mask id="mask24_0_1" style="mask-type:luminance" maskUnits="userSpaceOnUse" x="1889" y="574" width="49" height="49">
<path d="M1913.19 574.417C1899.93 574.417 1889.19 585.161 1889.19 598.417C1889.19 611.672 1899.93 622.417 1913.19 622.417C1926.44 622.417 1937.19 611.672 1937.19 598.417C1937.19 585.161 1926.44 574.417 1913.19 574.417Z" fill="white"/>
</mask>
<g mask="url(#mask24_0_1)">
<path d="M1889.19 574.417H1937.19V622.417H1889.19V574.417Z" fill="#F4511E"/>
</g>
</g>
</g>
</g>
</g>
<mask id="mask25_0_1" style="mask-type:luminance" maskUnits="userSpaceOnUse" x="1785" y="576" width="45" height="45">
<path d="M1785.7 576.417H1829.7V620.417H1785.7V576.417Z" fill="white"/>
</mask>
<g mask="url(#mask25_0_1)">
<mask id="mask26_0_1" style="mask-type:luminance" maskUnits="userSpaceOnUse" x="1785" y="576" width="45" height="45">
<path d="M1807.7 576.417C1795.55 576.417 1785.7 586.266 1785.7 598.417C1785.7 610.568 1795.55 620.417 1807.7 620.417C1819.84 620.417 1829.7 610.568 1829.7 598.417C1829.7 586.266 1819.84 576.417 1807.7 576.417Z" fill="white"/>
</mask>
<g mask="url(#mask26_0_1)">
<mask id="mask27_0_1" style="mask-type:luminance" maskUnits="userSpaceOnUse" x="1785" y="576" width="46" height="46">
<path d="M1830.67 576H1785.33V621.333H1830.67V576Z" fill="white"/>
</mask>
<g mask="url(#mask27_0_1)">
<mask id="mask28_0_1" style="mask-type:luminance" maskUnits="userSpaceOnUse" x="1785" y="576" width="45" height="45">
<path d="M1785.7 576.417H1829.7V620.417H1785.7V576.417Z" fill="white"/>
</mask>
<g mask="url(#mask28_0_1)">
<mask id="mask29_0_1" style="mask-type:luminance" maskUnits="userSpaceOnUse" x="1785" y="576" width="45" height="45">
<path d="M1807.7 576.417C1795.55 576.417 1785.7 586.266 1785.7 598.417C1785.7 610.568 1795.55 620.417 1807.7 620.417C1819.84 620.417 1829.7 610.568 1829.7 598.417C1829.7 586.266 1819.84 576.417 1807.7 576.417Z" fill="white"/>
</mask>
<g mask="url(#mask29_0_1)">
<path d="M1785.7 576.417H1829.7V620.417H1785.7V576.417Z" fill="#F57C00"/>
</g>
</g>
</g>
</g>
</g>
<mask id="mask30_0_1" style="mask-type:luminance" maskUnits="userSpaceOnUse" x="1686" y="578" width="41" height="41">
<path d="M1686.2 578.417H1726.2V618.417H1686.2V578.417Z" fill="white"/>
</mask>
<g mask="url(#mask30_0_1)">
<mask id="mask31_0_1" style="mask-type:luminance" maskUnits="userSpaceOnUse" x="1686" y="578" width="41" height="41">
<path d="M1706.2 578.417C1695.16 578.417 1686.2 587.37 1686.2 598.417C1686.2 609.464 1695.16 618.417 1706.2 618.417C1717.24 618.417 1726.2 609.464 1726.2 598.417C1726.2 587.37 1717.24 578.417 1706.2 578.417Z" fill="white"/>
</mask>
<g mask="url(#mask31_0_1)">
<mask id="mask32_0_1" style="mask-type:luminance" maskUnits="userSpaceOnUse" x="1685" y="577" width="42" height="42">
<path d="M1726.67 577.333H1685.33V618.667H1726.67V577.333Z" fill="white"/>
</mask>
<g mask="url(#mask32_0_1)">
<mask id="mask33_0_1" style="mask-type:luminance" maskUnits="userSpaceOnUse" x="1686" y="578" width="41" height="41">
<path d="M1686.2 578.417H1726.2V618.417H1686.2V578.417Z" fill="white"/>
</mask>
<g mask="url(#mask33_0_1)">
<mask id="mask34_0_1" style="mask-type:luminance" maskUnits="userSpaceOnUse" x="1686" y="578" width="41" height="41">
<path d="M1706.2 578.417C1695.16 578.417 1686.2 587.37 1686.2 598.417C1686.2 609.464 1695.16 618.417 1706.2 618.417C1717.24 618.417 1726.2 609.464 1726.2 598.417C1726.2 587.37 1717.24 578.417 1706.2 578.417Z" fill="white"/>
</mask>
<g mask="url(#mask34_0_1)">
<path d="M1686.2 578.417H1726.2V618.417H1686.2V578.417Z" fill="#F39C12"/>
</g>
</g>
</g>
</g>
</g>
<mask id="mask35_0_1" style="mask-type:luminance" maskUnits="userSpaceOnUse" x="1586" y="578" width="41" height="41">
<path d="M1586.71 578.417H1626.71V618.417H1586.71V578.417Z" fill="white"/>
</mask>
<g mask="url(#mask35_0_1)">
<mask id="mask36_0_1" style="mask-type:luminance" maskUnits="userSpaceOnUse" x="1586" y="578" width="41" height="41">
<path d="M1606.71 578.417C1595.66 578.417 1586.71 587.37 1586.71 598.417C1586.71 609.464 1595.66 618.417 1606.71 618.417C1617.76 618.417 1626.71 609.464 1626.71 598.417C1626.71 587.37 1617.76 578.417 1606.71 578.417Z" fill="white"/>
</mask>
<g mask="url(#mask36_0_1)">
<mask id="mask37_0_1" style="mask-type:luminance" maskUnits="userSpaceOnUse" x="1586" y="577" width="42" height="42">
<path d="M1628 577.333H1586.67V618.667H1628V577.333Z" fill="white"/>
</mask>
<g mask="url(#mask37_0_1)">
<mask id="mask38_0_1" style="mask-type:luminance" maskUnits="userSpaceOnUse" x="1586" y="578" width="41" height="41">
<path d="M1586.71 578.417H1626.71V618.417H1586.71V578.417Z" fill="white"/>
</mask>
<g mask="url(#mask38_0_1)">
<mask id="mask39_0_1" style="mask-type:luminance" maskUnits="userSpaceOnUse" x="1586" y="578" width="41" height="41">
<path d="M1606.71 578.417C1595.66 578.417 1586.71 587.37 1586.71 598.417C1586.71 609.464 1595.66 618.417 1606.71 618.417C1617.76 618.417 1626.71 609.464 1626.71 598.417C1626.71 587.37 1617.76 578.417 1606.71 578.417Z" fill="white"/>
</mask>
<g mask="url(#mask39_0_1)">
<path d="M1586.71 578.417H1626.71V618.417H1586.71V578.417Z" fill="#F5B52E"/>
</g>
</g>
</g>
</g>
</g>
<mask id="mask40_0_1" style="mask-type:luminance" maskUnits="userSpaceOnUse" x="1491" y="580" width="37" height="37">
<path d="M1491.21 580.417H1527.21V616.417H1491.21V580.417Z" fill="white"/>
</mask>
<g mask="url(#mask40_0_1)">
<mask id="mask41_0_1" style="mask-type:luminance" maskUnits="userSpaceOnUse" x="1491" y="580" width="37" height="37">
<path d="M1509.21 580.417C1499.27 580.417 1491.21 588.474 1491.21 598.417C1491.21 608.359 1499.27 616.417 1509.21 616.417C1519.16 616.417 1527.21 608.359 1527.21 598.417C1527.21 588.474 1519.16 580.417 1509.21 580.417Z" fill="white"/>
</mask>
<g mask="url(#mask41_0_1)">
<mask id="mask42_0_1" style="mask-type:luminance" maskUnits="userSpaceOnUse" x="1490" y="580" width="38" height="38">
<path d="M1528 580H1490.67V617.333H1528V580Z" fill="white"/>
</mask>
<g mask="url(#mask42_0_1)">
<mask id="mask43_0_1" style="mask-type:luminance" maskUnits="userSpaceOnUse" x="1491" y="580" width="37" height="37">
<path d="M1491.21 580.417H1527.21V616.417H1491.21V580.417Z" fill="white"/>
</mask>
<g mask="url(#mask43_0_1)">
<mask id="mask44_0_1" style="mask-type:luminance" maskUnits="userSpaceOnUse" x="1491" y="580" width="37" height="37">
<path d="M1509.21 580.417C1499.27 580.417 1491.21 588.474 1491.21 598.417C1491.21 608.359 1499.27 616.417 1509.21 616.417C1519.16 616.417 1527.21 608.359 1527.21 598.417C1527.21 588.474 1519.16 580.417 1509.21 580.417Z" fill="white"/>
</mask>
<g mask="url(#mask44_0_1)">
<path d="M1491.21 580.417H1527.21V616.417H1491.21V580.417Z" fill="#F6C343"/>
</g>
</g>
</g>
</g>
</g>
<mask id="mask45_0_1" style="mask-type:luminance" maskUnits="userSpaceOnUse" x="2472" y="561" width="75" height="75">
<path d="M2472.66 561.417H2546.66V635.417H2472.66V561.417Z" fill="white"/>
</mask>
<g mask="url(#mask45_0_1)">
<mask id="mask46_0_1" style="mask-type:luminance" maskUnits="userSpaceOnUse" x="2472" y="561" width="75" height="75">
<path d="M2509.66 561.417C2489.22 561.417 2472.66 577.979 2472.66 598.417C2472.66 618.849 2489.22 635.417 2509.66 635.417C2530.09 635.417 2546.66 618.849 2546.66 598.417C2546.66 577.979 2530.09 561.417 2509.66 561.417Z" fill="white"/>
</mask>
<g mask="url(#mask46_0_1)">
<mask id="mask47_0_1" style="mask-type:luminance" maskUnits="userSpaceOnUse" x="2472" y="561" width="75" height="75">
<path d="M2546.67 561.333H2472V636H2546.67V561.333Z" fill="white"/>
</mask>
<g mask="url(#mask47_0_1)">
<mask id="mask48_0_1" style="mask-type:luminance" maskUnits="userSpaceOnUse" x="2472" y="561" width="75" height="75">
<path d="M2472.66 561.417H2546.66V635.417H2472.66V561.417Z" fill="white"/>
</mask>
<g mask="url(#mask48_0_1)">
<mask id="mask49_0_1" style="mask-type:luminance" maskUnits="userSpaceOnUse" x="2472" y="561" width="75" height="75">
<path d="M2509.66 561.417C2489.22 561.417 2472.66 577.979 2472.66 598.417C2472.66 618.849 2489.22 635.417 2509.66 635.417C2530.09 635.417 2546.66 618.849 2546.66 598.417C2546.66 577.979 2530.09 561.417 2509.66 561.417Z" fill="white"/>
</mask>
<g mask="url(#mask49_0_1)">
<path d="M2472.66 561.417H2546.66V635.417H2472.66V561.417Z" fill="#E91E63"/>
</g>
</g>
</g>
</g>
</g>
</g>
<defs>
<clipPath id="clip0_0_1">
<rect width="3000" height="1000" fill="white" transform="translate(4)"/>
</clipPath>
</defs>
</svg>
